<svg width="1024" height="1024" viewBox="0 0 1024 1024" fill="none" xmlns="http://www.w3.org/2000/svg">
<rect y="64" width="1024" height="896" rx="64" fill="#1E1E1E"/>
<rect x="32" y="128" width="512" height="768" rx="64" fill="url(#paint0_linear_502_2)"/>
<g filter="url(#filter0_d_502_2)">
<mask id="path-3-outside-1_502_2" maskUnits="userSpaceOnUse" x="85" y="218" width="333" height="579" fill="black">
<rect fill="white" x="85" y="218" width="333" height="579"/>
<path d="M252.472 795.68C218.68 795.68 189.24 789.28 164.152 776.48C139.576 763.68 120.376 745.248 106.552 721.184C93.24 696.608 86.584 667.68 86.584 634.4V380.96C86.584 347.168 93.24 318.24 106.552 294.176C120.376 270.112 139.576 251.68 164.152 238.88C189.24 226.08 218.68 219.68 252.472 219.68C286.264 219.68 315.448 226.336 340.024 239.648C364.6 252.448 383.544 270.88 396.856 294.944C410.168 319.008 416.824 347.68 416.824 380.96H347.704C347.704 349.216 339.256 324.896 322.36 308C305.976 290.592 282.68 281.888 252.472 281.888C222.264 281.888 198.456 290.336 181.048 307.232C164.152 324.128 155.704 348.448 155.704 380.192V634.4C155.704 666.144 164.152 690.72 181.048 708.128C198.456 725.536 222.264 734.24 252.472 734.24C282.68 734.24 305.976 725.536 322.36 708.128C339.256 690.72 347.704 666.144 347.704 634.4V565.28H234.04V502.304H416.824V634.4C416.824 667.168 410.168 695.84 396.856 720.416C383.544 744.48 364.6 763.168 340.024 776.48C315.448 789.28 286.264 795.68 252.472 795.68Z"/>
</mask>
<path d="M252.472 795.68C218.68 795.68 189.24 789.28 164.152 776.48C139.576 763.68 120.376 745.248 106.552 721.184C93.24 696.608 86.584 667.68 86.584 634.4V380.96C86.584 347.168 93.24 318.24 106.552 294.176C120.376 270.112 139.576 251.68 164.152 238.88C189.24 226.08 218.68 219.68 252.472 219.68C286.264 219.68 315.448 226.336 340.024 239.648C364.6 252.448 383.544 270.88 396.856 294.944C410.168 319.008 416.824 347.68 416.824 380.96H347.704C347.704 349.216 339.256 324.896 322.36 308C305.976 290.592 282.68 281.888 252.472 281.888C222.264 281.888 198.456 290.336 181.048 307.232C164.152 324.128 155.704 348.448 155.704 380.192V634.4C155.704 666.144 164.152 690.72 181.048 708.128C198.456 725.536 222.264 734.24 252.472 734.24C282.68 734.24 305.976 725.536 322.36 708.128C339.256 690.72 347.704 666.144 347.704 634.4V565.28H234.04V502.304H416.824V634.4C416.824 667.168 410.168 695.84 396.856 720.416C383.544 744.48 364.6 763.168 340.024 776.48C315.448 789.28 286.264 795.68 252.472 795.68Z" fill="white" shape-rendering="crispEdges"/>
<path d="M164.152 776.48L163.69 777.367L163.698 777.371L164.152 776.48ZM106.552 721.184L105.673 721.66L105.679 721.671L105.685 721.682L106.552 721.184ZM106.552 294.176L105.685 293.678L105.681 293.685L105.677 293.692L106.552 294.176ZM164.152 238.88L163.698 237.989L163.69 237.993L164.152 238.88ZM340.024 239.648L339.548 240.527L339.555 240.531L339.562 240.535L340.024 239.648ZM416.824 380.96V381.96H417.824V380.96H416.824ZM347.704 380.96H346.704V381.96H347.704V380.96ZM322.36 308L321.632 308.685L321.642 308.696L321.653 308.707L322.36 308ZM181.048 307.232L180.352 306.514L180.346 306.52L180.341 306.525L181.048 307.232ZM181.048 708.128L180.33 708.824L180.336 708.83L180.341 708.835L181.048 708.128ZM322.36 708.128L321.642 707.432L321.637 707.437L321.632 707.443L322.36 708.128ZM347.704 565.28H348.704V564.28H347.704V565.28ZM234.04 565.28H233.04V566.28H234.04V565.28ZM234.04 502.304V501.304H233.04V502.304H234.04ZM416.824 502.304H417.824V501.304H416.824V502.304ZM396.856 720.416L397.731 720.9L397.735 720.892L396.856 720.416ZM340.024 776.48L340.486 777.367L340.493 777.363L340.5 777.359L340.024 776.48ZM252.472 794.68C218.807 794.68 189.528 788.304 164.606 775.589L163.698 777.371C188.952 790.256 218.553 796.68 252.472 796.68V794.68ZM164.614 775.593C140.208 762.881 121.148 744.585 107.419 720.686L105.685 721.682C119.604 745.911 138.944 764.479 163.69 777.367L164.614 775.593ZM107.431 720.708C94.2123 696.303 87.584 667.545 87.584 634.4H85.584C85.584 667.815 92.2677 696.913 105.673 721.66L107.431 720.708ZM87.584 634.4V380.96H85.584V634.4H87.584ZM87.584 380.96C87.584 347.299 94.2138 318.546 107.427 294.66L105.677 293.692C92.2663 317.934 85.584 347.037 85.584 380.96H87.584ZM107.419 294.674C121.148 270.775 140.208 252.478 164.614 239.767L163.69 237.993C138.944 250.881 119.604 269.448 105.685 293.678L107.419 294.674ZM164.606 239.771C189.528 227.056 218.807 220.68 252.472 220.68V218.68C218.553 218.68 188.952 225.104 163.698 237.989L164.606 239.771ZM252.472 220.68C286.132 220.68 315.146 227.309 339.548 240.527L340.5 238.769C315.75 225.363 286.396 218.68 252.472 218.68V220.68ZM339.562 240.535C363.965 253.245 382.765 271.537 395.981 295.428L397.731 294.46C384.323 270.223 365.235 251.651 340.486 238.761L339.562 240.535ZM395.981 295.428C409.195 319.316 415.824 347.814 415.824 380.96H417.824C417.824 347.546 411.141 318.7 397.731 294.46L395.981 295.428ZM416.824 379.96H347.704V381.96H416.824V379.96ZM348.704 380.96C348.704 349.041 340.206 324.432 323.067 307.293L321.653 308.707C338.306 325.36 346.704 349.391 346.704 380.96H348.704ZM323.088 307.315C306.468 289.656 282.878 280.888 252.472 280.888V282.888C282.482 282.888 305.484 291.528 321.632 308.685L323.088 307.315ZM252.472 280.888C222.071 280.888 197.989 289.395 180.352 306.514L181.744 307.95C198.923 291.277 222.457 282.888 252.472 282.888V280.888ZM180.341 306.525C163.202 323.664 154.704 348.273 154.704 380.192H156.704C156.704 348.623 165.102 324.592 181.755 307.939L180.341 306.525ZM154.704 380.192V634.4H156.704V380.192H154.704ZM154.704 634.4C154.704 666.321 163.203 691.178 180.33 708.824L181.766 707.432C165.101 690.262 156.704 665.967 156.704 634.4H154.704ZM180.341 708.835C197.977 726.472 222.063 735.24 252.472 735.24V733.24C222.465 733.24 198.935 724.6 181.755 707.421L180.341 708.835ZM252.472 735.24C282.878 735.24 306.468 726.472 323.088 708.813L321.632 707.443C305.484 724.6 282.482 733.24 252.472 733.24V735.24ZM323.078 708.824C340.205 691.178 348.704 666.321 348.704 634.4H346.704C346.704 665.967 338.307 690.262 321.642 707.432L323.078 708.824ZM348.704 634.4V565.28H346.704V634.4H348.704ZM347.704 564.28H234.04V566.28H347.704V564.28ZM235.04 565.28V502.304H233.04V565.28H235.04ZM234.04 503.304H416.824V501.304H234.04V503.304ZM415.824 502.304V634.4H417.824V502.304H415.824ZM415.824 634.4C415.824 667.03 409.197 695.533 395.977 719.94L397.735 720.892C411.139 696.147 417.824 667.306 417.824 634.4H415.824ZM395.981 719.932C382.763 743.826 363.959 762.378 339.548 775.601L340.5 777.359C365.241 763.958 384.325 745.134 397.731 720.9L395.981 719.932ZM339.562 775.593C315.157 788.304 286.138 794.68 252.472 794.68V796.68C286.39 796.68 315.739 790.256 340.486 777.367L339.562 775.593Z" fill="black" fill-opacity="0.5" mask="url(#path-3-outside-1_502_2)"/>
</g>
<path d="M739.84 788V289.568H586.24V226.592H962.56V289.568H808.96V788H739.84Z" fill="white"/>
<defs>
<filter id="filter0_d_502_2" x="22.584" y="155.68" width="458.24" height="704" filterUnits="userSpaceOnUse" color-interpolation-filters="sRGB">
<feFlood flood-opacity="0" result="BackgroundImageFix"/>
<feColorMatrix in="SourceAlpha" type="matrix" values="0 0 0 0 0 0 0 0 0 0 0 0 0 0 0 0 0 0 127 0" result="hardAlpha"/>
<feOffset/>
<feGaussianBlur stdDeviation="32"/>
<feComposite in2="hardAlpha" operator="out"/>
<feColorMatrix type="matrix" values="0 0 0 0 0 0 0 0 0 0 0 0 0 0 0 0 0 0 0.5 0"/>
<feBlend mode="normal" in2="BackgroundImageFix" result="effect1_dropShadow_502_2"/>
<feBlend mode="normal" in="SourceGraphic" in2="effect1_dropShadow_502_2" result="shape"/>
</filter>
<linearGradient id="paint0_linear_502_2" x1="55.5" y1="103" x2="523.5" y2="925" gradientUnits="userSpaceOnUse">
<stop stop-color="#3029B3"/>
<stop offset="0.56" stop-color="#3A00CC"/>
<stop offset="1" stop-color="#680099"/>
</linearGradient>
</defs>
</svg>
